<?xml version="1.0" encoding="utf-8"?>

<svg class="logo" version="1.1" id="Ebene_9" xmlns="http://www.w3.org/2000/svg"
	xmlns:xlink="http://www.w3.org/1999/xlink" x="0px" y="0px" width="336px" height="203px" viewBox="0 0.5 336 203"
	enable-background="new 0 0.5 336 203" xml:space="preserve">
	<g class="logo__small">
		<g enable-background="new    ">
			<g>
				<polygon fill="#A2BC09" points="109.255,57.589 115.988,75.24 99.185,83.443 92.455,65.793 			"></polygon>
			</g>
			<g>
				<polygon fill="#697D05" points="99.185,83.443 89.569,80.275 82.808,62.625 92.455,65.793 			"></polygon>
			</g>
			<g>
				<polygon fill="#7B9006" points="92.455,65.793 82.808,62.625 99.611,54.42 109.255,57.589 			"></polygon>
			</g>
		</g>
		<g enable-background="new    ">
			<g>
				<polygon fill="#D1040C" points="102.496,39.938 109.255,57.589 92.455,65.793 85.694,48.141 			">
				</polygon>
			</g>
			<g>
				<polygon fill="#880C00" points="92.455,65.793 82.808,62.625 76.048,44.973 85.694,48.141 			"></polygon>
			</g>
			<g>
				<polygon fill="#9E0B01" points="85.694,48.141 76.048,44.973 92.849,36.77 102.496,39.938 			"></polygon>
			</g>
		</g>
		<g enable-background="new    ">
			<g>
				<polygon fill="#1294CB" points="78.933,30.492 95.763,22.346 102.496,39.938 85.694,48.141 			"></polygon>
			</g>
			<g>
				<polygon fill="#0F739B" points="78.933,30.492 69.317,27.324 86.119,19.178 95.763,22.346 			"></polygon>
			</g>
			<g>
				<polygon fill="#0C6385" points="85.694,48.141 76.048,44.973 69.317,27.324 78.933,30.492 			"></polygon>
			</g>
			<g>
				<polygon fill="#E08600" points="89.003,4.695 95.763,22.346 78.962,30.548 72.202,12.897 			"></polygon>
			</g>
			<g>
				<polygon fill="#915900" points="78.962,30.548 69.317,27.379 62.583,9.729 72.202,12.897 			"></polygon>
			</g>
			<g>
				<polygon fill="#A96800" points="72.202,12.897 62.583,9.729 79.386,1.5 89.003,4.695 			"></polygon>
			</g>
		</g>
		<g enable-background="new    ">
			<g>
				<polygon fill="#A96800" points="75.625,74.022 65.978,70.854 82.781,62.652 92.425,65.82 			"></polygon>
			</g>
			<g>
				<polygon fill="#915900" points="82.356,91.673 72.739,88.505 65.978,70.854 75.625,74.022 			"></polygon>
			</g>
			<g>
				<polygon fill="#E08600" points="92.425,65.82 99.158,83.471 82.356,91.673 75.625,74.022 			"></polygon>
			</g>
			<g>
				<polygon fill="#9D140F" points="85.666,48.17 92.425,65.82 75.625,74.022 68.864,56.373 			"></polygon>
			</g>
			<g>
				<polygon fill="#781001" points="75.625,74.022 65.978,70.854 59.218,53.205 68.864,56.373 			"></polygon>
			</g>
			<g>
				<polygon fill="#831105" points="68.864,56.373 59.218,53.205 76.019,45.002 85.666,48.17 			"></polygon>
			</g>
			<g>
				<polygon fill="#A20053" points="58.823,82.254 49.177,79.086 65.978,70.854 75.625,74.022 			"></polygon>
			</g>
			<g>
				<polygon fill="#8B0046" points="65.583,99.904 55.937,96.736 49.177,79.086 58.823,82.254 			"></polygon>
			</g>
			<g>
				<polygon fill="#D4006D" points="75.625,74.022 82.356,91.673 65.583,99.904 58.823,82.254 			"></polygon>
			</g>
		</g>
		<g enable-background="new    ">
			<g>
				<polygon fill="#009F7B" points="62.132,38.722 78.933,30.576 85.666,48.17 68.864,56.373 			"></polygon>
			</g>
			<g>
				<polygon fill="#007C5F" points="62.132,38.722 52.487,35.555 69.289,27.379 78.933,30.576 			"></polygon>
			</g>
			<g>
				<polygon fill="#006B51" points="68.864,56.373 59.218,53.205 52.487,35.555 62.132,38.722 			"></polygon>
			</g>
			<g>
				<polygon fill="#D4006D" points="72.173,12.926 78.933,30.576 62.132,38.779 55.4,21.129 			"></polygon>
			</g>
			<g>
				<polygon fill="#8B0046" points="62.132,38.779 52.487,35.611 45.753,17.961 55.4,21.129 			"></polygon>
			</g>
			<g>
				<polygon fill="#A20053" points="55.4,21.129 45.753,17.961 62.556,9.758 72.173,12.926 			"></polygon>
			</g>
		</g>
		<g enable-background="new    ">
			<g>
				<polygon fill="#808080" points="48.782,108.135 39.136,104.939 32.375,87.289 42.021,90.486 			">
				</polygon>
			</g>
			<g>
				<polygon fill="#9E9E9E" points="42.021,90.486 32.375,87.289 49.177,79.086 58.823,82.254 			"></polygon>
			</g>
		</g>
		<g enable-background="new    ">
			<g>
				<polygon fill="#808080" points="58.823,82.254 49.177,79.086 42.417,61.435 52.062,64.603 			"></polygon>
			</g>
			<g>
				<polygon fill="#9E9E9E" points="52.062,64.603 42.417,61.435 59.218,53.205 68.864,56.373 			"></polygon>
			</g>
		</g>
		<g enable-background="new    ">
			<g>
				<polygon fill="#808080" points="42.021,90.486 32.375,87.289 25.644,69.639 35.261,72.836 			"></polygon>
			</g>
			<g>
				<polygon fill="#9E9E9E" points="35.261,72.836 25.644,69.639 42.417,61.435 52.062,64.603 			"></polygon>
			</g>
		</g>
		<g enable-background="new    ">
			<g>
				<polygon fill="#A2BC09" points="62.132,38.779 68.864,56.373 52.062,64.603 45.331,47.011 			"></polygon>
			</g>
			<g>
				<polygon fill="#697D05" points="52.062,64.603 42.417,61.435 35.712,43.842 45.331,47.011 			"></polygon>
			</g>
			<g>
				<polygon fill="#7B9006" points="45.331,47.011 35.712,43.842 52.487,35.611 62.132,38.779 			"></polygon>
			</g>
		</g>
		<g enable-background="new    ">
			<g>
				<polygon fill="#D1040C" points="55.4,21.129 62.132,38.779 45.331,47.011 38.597,29.361 			"></polygon>
			</g>
			<g>
				<polygon fill="#880C00" points="45.331,47.011 35.712,43.842 28.954,26.193 38.597,29.361 			"></polygon>
			</g>
			<g>
				<polygon fill="#9E0B01" points="38.597,29.361 28.954,26.193 45.753,17.961 55.4,21.129 			"></polygon>
			</g>
		</g>
		<g enable-background="new    ">
			<g>
				<polygon fill="#9E9E9E" points="28.529,55.184 18.882,51.988 35.712,43.842 45.331,47.011 			"></polygon>
			</g>
			<g>
				<polygon fill="#808080" points="35.261,72.836 25.644,69.639 18.882,51.988 28.529,55.184 			"></polygon>
			</g>
			<g>
				<polygon fill="#9D140F" points="38.597,29.361 45.331,47.011 28.529,55.213 21.796,37.562 			"></polygon>
			</g>
			<g>
				<polygon fill="#781001" points="28.529,55.213 18.912,52.045 12.152,34.394 21.796,37.562 			"></polygon>
			</g>
			<g>
				<polygon fill="#831105" points="21.796,37.562 12.152,34.394 28.954,26.193 38.597,29.361 			"></polygon>
			</g>
		</g>
		<g enable-background="new    ">
			<polygon fill="#E6E6E6" points="75.625,74.022 68.864,56.373 52.062,64.603 45.331,47.011 28.529,55.184 35.261,72.836 
			18.458,81.039 25.218,98.687 42.021,90.486 48.782,108.135 65.583,99.904 58.823,82.254 		"></polygon>
			<g>
				<polygon fill="#808080" points="25.218,98.687 15.575,95.519 8.841,77.871 18.458,81.039 			"></polygon>
			</g>
			<g>
				<polygon fill="#9E9E9E" points="18.458,81.039 8.841,77.871 25.644,69.639 35.261,72.836 			"></polygon>
			</g>
		</g>
	</g>
	<g class="logo__text">
		<path fill="#1A1A18" d="M7.681,124.654h4.471l-4.243,18.439H3.44L7.681,124.654z"></path>
		<path fill="#1A1A18" d="M25.388,131.67h-4.271l0.479-2.178c0.058-0.17,0.086-0.396,0.086-0.596c0-1.045-0.793-1.189-1.387-1.189
		c-1.074,0-1.272,0.51-1.5,1.105l-2.205,9.445c-0.086,0.312-0.17,0.648-0.17,0.961c0,0.904,0.877,1.021,1.272,1.021
		c1.159,0,1.442-0.793,1.556-1.16c0.312-0.877,0.537-1.95,0.764-2.94h4.582l-0.649,2.658c-0.819,3.311-1.952,4.639-6.478,4.639
		c-1.188,0-2.234-0.112-3.168-0.479c-0.906-0.366-2.377-1.272-2.377-3.194c0-0.281,0-0.851,0.426-2.572l1.781-7.75
		c0.565-2.549,1.272-3.479,2.064-4.047c1.216-0.903,3.281-1.073,4.439-1.073c1.133,0,2.547,0.17,3.451,0.536
		c0.877,0.396,1.979,1.188,1.979,3.195c0,0.396-0.058,0.85-0.142,1.301L25.388,131.67z"></path>
		<path fill="#1A1A18"
			d="M28.019,124.654h10.918l-0.734,3.197H35.12l-3.536,15.242h-4.496l3.535-15.242h-3.365L28.019,124.654z">
		</path>
		<path fill="#1A1A18" d="M47.337,124.654h5.291c2.573,0,5.629,0,5.629,2.971c0,1.018-0.426,2.742-0.596,3.281
		c-0.48,1.471-1.216,1.979-3.225,2.291c0.82,0.197,2.264,0.594,2.264,2.348c0,0.848-0.764,4.271-1.273,5.43
		c-0.734,1.584-2.233,2.096-4.496,2.096h-7.836L47.337,124.654z M49.404,135.119l-1.075,4.725h1.925c1.301,0,1.498-0.68,1.725-1.697
		l0.367-1.555c0.058-0.17,0.086-0.369,0.086-0.564c0-0.682-0.565-0.879-1.272-0.879h-1.754L49.404,135.119L49.404,135.119z
		 M51.073,127.963l-0.935,4.018h1.584c1.047,0,1.697-0.17,1.979-1.412l0.283-1.219c0.028-0.17,0.058-0.311,0.058-0.479
		c0-0.904-0.765-0.904-1.5-0.904h-1.469V127.963z"></path>
		<path fill="#1A1A18" d="M70.081,138.57c-0.255,1.047-0.538,2.264-1.413,3.197c-0.82,0.961-2.207,1.668-4.669,1.668
		c-0.706,0-2.657-0.113-3.903-1.074c-0.594-0.48-1.158-1.189-1.158-2.689c0-1.867,1.328-6.984,1.781-8.031
		c0.48-1.133,1.557-2.887,5.375-2.887c1.668,0,4.922,0.312,4.922,3.422c0,0.566-0.113,1.189-0.228,1.783
		c-0.198,1.02-0.425,1.951-0.679,3.141h-6.676c-0.198,0.818-0.48,1.951-0.48,2.547c0,0.143,0.028,0.279,0.085,0.426
		c0.169,0.312,0.595,0.537,1.159,0.537c1.188,0,1.33-0.82,1.611-2.01h4.271L70.081,138.57L70.081,138.57z M66.714,134.525
		c0.112-0.451,0.367-1.527,0.367-1.896c0-0.254-0.057-0.51-0.197-0.707c-0.256-0.311-0.735-0.365-0.99-0.365
		c-1.272,0-1.471,0.936-1.867,2.971L66.714,134.525L66.714,134.525z"></path>
		<path fill="#1A1A18" d="M78.651,131.896c1.159-2.207,2.008-2.688,4.215-3.027l-1.047,3.902c-0.283-0.027-0.565-0.027-0.849-0.027
		c-2.291,0-2.715,0.99-3.311,3.564l-1.557,6.814h-4.129l3.225-14.002h4.13L78.651,131.896z"></path>
		<path fill="#1A1A18" d="M88.833,129.096l-2.121,9.137c-0.17,0.65-0.227,1.02-0.227,1.328c0,0.707,0.509,1.021,0.99,1.021
		c1.131,0,1.471-1.33,1.668-2.234l2.121-9.248h4.216l-3.226,14h-4.187l0.312-1.473c-0.649,0.682-1.668,1.729-3.563,1.729
		c-1.019,0-2.743-0.366-2.743-2.549c0-0.254,0.027-0.817,0.197-1.555l2.32-10.154h4.243V129.096z"></path>
		<path fill="#1A1A18" d="M99.667,127.738c0.508-2.123,0.818-3.197,4.383-3.197c0.793,0,1.557,0.029,2.461,0.086l-0.594,2.545
		c-1.472-0.027-1.781,0.027-2.009,0.537c-0.112,0.227-0.282,1.02-0.366,1.357h1.838l-0.595,2.518h-1.839l-2.63,11.484H96.13
		l2.631-11.484h-1.67l0.565-2.518h1.696L99.667,127.738z"></path>
		<path fill="#1A1A18" d="M108.832,138.316c-0.142,0.424-0.283,0.904-0.283,1.387c0,0.734,0.594,0.877,1.047,0.877
		c0.143,0,0.48,0,0.765-0.17c0.479-0.34,0.594-1.047,0.594-1.414c0-0.51-0.198-0.736-0.509-0.99
		c-0.396-0.34-2.604-1.924-2.659-1.979c-0.962-0.766-1.526-1.527-1.526-2.574c0-0.82,0.396-2.008,0.707-2.574
		c0.764-1.357,2.545-2.064,4.809-2.064c2.744,0,4.865,1.074,4.865,3.227c0,0.512-0.113,0.961-0.198,1.439h-3.933
		c0.086-0.254,0.228-0.848,0.228-1.131c0-0.111-0.028-0.791-1.047-0.791c-1.244,0-1.244,1.303-1.244,1.357
		c0,0.51,0.282,0.764,0.819,1.16c0.029,0.027,1.302,0.904,1.472,1.045c1.782,1.217,2.657,1.867,2.657,3.367
		c0,0.848-0.366,2.432-1.073,3.281c-0.679,0.818-2.121,1.641-4.582,1.641c-1.979,0-2.856-0.367-3.226-0.537
		c-1.33-0.596-1.924-1.443-1.924-2.801c0-0.65,0.17-1.189,0.312-1.729h3.932v-0.027H108.832z"></path>
		<path fill="#1A1A18" d="M125.632,124.654l-1.357,5.938c0.566-0.764,1.441-1.838,3.225-1.838c1.442,0,2.914,0.791,2.914,2.914
		c0,1.328-0.849,4.98-1.188,6.506c-0.51,2.064-1.244,5.262-4.695,5.262c-1.98,0-2.574-1.414-2.801-1.896l-0.367,1.556h-4.243
		l4.243-18.438h4.269V124.654L125.632,124.654z M126.085,133.705c0.17-0.764,0.17-0.934,0.17-1.074c0-0.51-0.283-1.047-1.133-1.047
		c-0.254,0-1.104,0-1.357,1.104l-1.498,6.395c-0.028,0.17-0.057,0.342-0.057,0.512c0,0.648,0.451,1.047,1.103,1.047
		c0.735,0,1.272-0.51,1.5-1.5L126.085,133.705z"></path>
		<path fill="#1A1A18" d="M134.402,129.096h4.156l-3.225,14h-4.129L134.402,129.096z M139.578,124.654l-0.707,3.141h-4.158
		l0.735-3.141H139.578z"></path>
		<path fill="#1A1A18" d="M142.916,124.654h4.188l-4.243,18.439h-4.187L142.916,124.654z"></path>
		<path fill="#1A1A18" d="M156.943,124.654h4.217l-4.242,18.439h-4.215l0.424-1.693c-0.594,0.732-1.557,1.922-3.365,1.922
		c-0.736,0-2.971-0.283-2.971-2.855c0-1.387,1.5-7.299,1.641-7.752c0.537-1.838,1.244-3.959,4.074-3.959
		c0.877,0,2.572,0.34,3.111,1.812L156.943,124.654z M154.937,133.367c0.057-0.227,0.113-0.453,0.113-0.68
		c0-0.623-0.34-1.131-1.104-1.131c-1.104,0-1.357,1.072-1.527,1.811l-1.188,5.232c-0.086,0.311-0.17,0.816-0.17,1.131
		c0,0.793,0.566,1.018,1.074,1.018c1.133,0,1.387-1.188,1.557-1.951L154.937,133.367z"></path>
		<path fill="#1A1A18" d="M167.553,129.096l-2.122,9.137c-0.17,0.65-0.227,1.02-0.227,1.328c0,0.707,0.51,1.021,0.988,1.021
		c1.133,0,1.473-1.33,1.667-2.234l2.125-9.248h4.213l-3.225,14h-4.188l0.311-1.473c-0.65,0.682-1.668,1.729-3.561,1.729
		c-1.021,0-2.744-0.366-2.744-2.549c0-0.254,0.025-0.817,0.195-1.555l2.32-10.154h4.247V129.096L167.553,129.096z"></path>
		<path fill="#1A1A18" d="M185.006,143.096h-4.158l2.234-9.842c0.084-0.312,0.084-0.539,0.084-0.65c0-0.988-0.85-0.988-0.961-0.988
		c-1.189,0-1.5,1.244-1.559,1.668l-2.264,9.812h-4.072l3.227-14h4.102l-0.34,1.385c1.557-1.641,3.254-1.695,3.707-1.695
		c0.791,0,2.602,0.256,2.602,2.547c0,0.512-0.084,0.938-0.17,1.355L185.006,143.096z"></path>
		<path fill="#1A1A18" d="M195.188,141.4c-0.562,0.732-1.525,1.922-3.395,1.922c-0.65,0-1.414-0.17-1.98-0.678
		c-0.623-0.566-0.85-1.389-0.85-2.404c0-1.641,0.99-5.459,1.5-7.129c0.734-2.434,1.725-4.328,4.299-4.328
		c2.037,0,2.885,1.5,2.885,2.01l0.424-1.697h4.219l-3.252,14.145c-0.514,2.205-0.854,3.562-1.896,4.641
		c-1.16,1.188-2.888,1.525-4.527,1.525c-1.045,0-5.116-0.084-5.116-3.479c0-0.537,0.11-0.935,0.228-1.414h4.157
		c-0.256,1.045-0.256,1.158-0.256,1.328c0,0.963,0.903,0.963,1.188,0.963c0.396,0,1.16,0,1.556-1.754L195.188,141.4z
		 M197.109,133.055c0.027-0.141,0.059-0.283,0.059-0.424c0-0.904-0.707-1.074-1.131-1.074c-0.596,0-1.273,0.254-1.613,1.697
		l-1.16,4.949c-0.084,0.34-0.168,0.877-0.168,1.244c0,1.076,0.764,1.133,1.045,1.133c0.99,0,1.471-0.877,1.643-1.727
		L197.109,133.055z"></path>
		<path fill="#1A1A18" d="M50.705,150.762l-0.707,3.143h-4.837l-0.962,4.215h4.641l-0.736,3.168h-4.639l-1.838,7.947h-4.441
		l4.242-18.441h9.277V150.762z"></path>
		<path fill="#1A1A18" d="M61.623,158.682c0,1.471-1.131,6.107-1.527,7.299c-0.508,1.471-1.301,3.535-5.486,3.535
		c-3.141,0-5.146-1.047-5.146-3.791c0-1.527,1.188-6.137,1.414-6.873c0.451-1.498,1.328-4.018,5.346-4.018
		C58.341,154.836,61.623,155.174,61.623,158.682z M57.522,159.219c0.057-0.168,0.085-0.367,0.085-0.537
		c0.027-0.678-0.51-1.047-1.133-1.047c-1.131,0-1.356,0.963-1.498,1.584l-1.301,5.604c-0.058,0.229-0.113,0.51-0.113,0.818
		c0,0.537,0.311,1.074,1.131,1.074c1.132,0,1.33-0.904,1.557-1.867L57.522,159.219z"></path>
		<path fill="#1A1A18" d="M69.204,158.004c1.159-2.207,2.009-2.688,4.216-3.027l-1.048,3.904c-0.282-0.029-0.565-0.029-0.849-0.029
		c-2.291,0-2.717,0.99-3.311,3.564l-1.556,6.816h-4.13l3.225-14.002h4.131L69.204,158.004z"></path>
		<path fill="#1A1A18" d="M79.046,156.814c1.272-1.781,3.252-1.895,3.762-1.895c0.963,0,2.461,0.395,2.631,1.924
		c1.02-1.273,2.461-1.951,4.102-1.951c1.02,0,2.857,0.367,2.857,2.404c0,0.424-0.086,0.818-0.143,1.188l-2.488,10.721h-4.243
		l2.29-9.93c0.029-0.197,0.058-0.338,0.058-0.537c0-0.537-0.282-1.104-1.073-1.104c-1.16,0-1.416,1.133-1.527,1.584l-2.291,9.957
		h-4.243l2.319-10.07c0.057-0.168,0.084-0.338,0.084-0.48c0-0.648-0.453-1.074-1.104-1.074c-0.85,0-1.357,0.623-1.557,1.527
		l-2.318,10.098h-4.188l3.226-14.002h4.215L79.046,156.814z"></path>
		<path fill="#1A1A18" d="M103.71,167.621c-0.027,0.197-0.084,0.424-0.084,0.621c0,0.623,0.17,0.764,0.396,0.963h-4.753l0.369-1.471
		c-0.935,0.818-2.123,1.838-3.764,1.838c-0.281,0-2.771,0-2.771-2.547c0-0.85,0.537-3.311,1.414-4.299
		c0.85-0.99,2.121-1.357,6.986-2.771c0.143-0.537,0.312-1.443,0.312-1.641c0-0.736-0.68-0.793-1.133-0.793
		c-1.158,0-1.385,0.623-1.78,2.037h-3.96c0.594-2.436,0.904-3.252,2.206-3.902c0.962-0.51,2.291-0.736,3.762-0.736
		c2.404,0,4.894,0.594,4.894,3.055c0,0.512-0.112,1.047-0.227,1.559L103.71,167.621z M100.912,162.643
		c-0.934,0.283-2.148,0.648-2.631,1.047c-0.68,0.537-0.85,2.035-0.85,2.291c0,0.479,0.199,0.848,0.906,0.848
		c0.734,0,1.272-0.453,1.725-0.82L100.912,162.643z"></path>
		<path fill="#1A1A18" d="M111.321,150.734h4.101l-1.045,4.469h1.865l-0.594,2.518h-1.84l-1.695,7.297
		c-0.057,0.229-0.113,0.566-0.113,0.82c0,0.736,0.51,0.736,1.697,0.736l-0.596,2.658c-3.647,0-5.571,0-5.571-2.096
		c0-0.449,0.085-0.791,0.228-1.355l1.924-8.033h-1.67l0.565-2.518h1.697L111.321,150.734z"></path>
		<path fill="#1A1A18" d="M118.618,155.203h4.158l-3.226,14.002h-4.129L118.618,155.203z M123.765,150.762l-0.707,3.143h-4.157
		l0.735-3.143H123.765z"></path>
		<path fill="#1A1A18" d="M135.759,158.682c0,1.471-1.133,6.107-1.527,7.299c-0.51,1.471-1.303,3.535-5.487,3.535
		c-3.14,0-5.147-1.047-5.147-3.791c0-1.527,1.188-6.137,1.414-6.873c0.453-1.498,1.33-4.018,5.347-4.018
		C132.478,154.836,135.759,155.174,135.759,158.682z M131.628,159.219c0.057-0.168,0.086-0.367,0.086-0.537
		c0.027-0.678-0.51-1.047-1.133-1.047c-1.131,0-1.357,0.963-1.498,1.584l-1.302,5.604c-0.058,0.229-0.112,0.51-0.112,0.818
		c0,0.537,0.312,1.074,1.131,1.074c1.131,0,1.33-0.904,1.557-1.867L131.628,159.219z"></path>
		<path fill="#1A1A18" d="M147.328,169.205h-4.158l2.234-9.844c0.084-0.312,0.084-0.537,0.084-0.65c0-0.99-0.848-0.99-0.961-0.99
		c-1.188,0-1.498,1.244-1.555,1.668l-2.264,9.816h-4.072l3.225-14.002h4.102l-0.34,1.387c1.557-1.641,3.254-1.697,3.705-1.697
		c0.793,0,2.604,0.254,2.604,2.545c0,0.512-0.086,0.936-0.17,1.357L147.328,169.205z"></path>
		<path fill="#1A1A18" d="M169.053,165.301c-0.623,2.744-1.811,4.242-4.075,4.242c-1.584,0-2.715-0.791-3.025-1.895
		c-0.057-0.143-0.029-0.512-0.086-0.283l-1.584,6.93h-4.215l4.385-19.035h4.215l-0.48,1.781c0.734-0.904,1.668-2.092,3.591-2.092
		c1.584,0,2.83,0.934,2.83,2.828c0,0.537-0.084,1.074-0.195,1.668L169.053,165.301z M166.138,159.814
		c0.113-0.453,0.197-0.85,0.197-1.189c0-0.707-0.451-1.074-1.074-1.074c-1.047,0-1.33,0.791-1.443,1.273l-1.328,5.77
		c-0.086,0.342-0.17,0.793-0.17,1.049c0,0.791,0.566,1.104,1.104,1.104c0.707,0,1.188-0.452,1.441-1.5L166.138,159.814z">
		</path>
		<path fill="#1A1A18" d="M178.02,158.004c1.158-2.207,2.008-2.688,4.213-3.027l-1.045,3.904c-0.283-0.029-0.564-0.029-0.85-0.029
		c-2.291,0-2.715,0.99-3.311,3.564l-1.557,6.816h-4.131l3.227-14.002h4.129L178.02,158.004z"></path>
		<path fill="#1A1A18" d="M193.771,158.682c0,1.471-1.131,6.107-1.525,7.299c-0.512,1.471-1.303,3.535-5.486,3.535
		c-3.141,0-5.148-1.047-5.148-3.791c0-1.527,1.188-6.137,1.414-6.873c0.453-1.498,1.33-4.018,5.348-4.018
		C190.465,154.836,193.771,155.174,193.771,158.682z M189.645,159.219c0.059-0.168,0.084-0.367,0.084-0.537
		c0.029-0.678-0.51-1.047-1.131-1.047c-1.131,0-1.355,0.963-1.5,1.584l-1.301,5.604c-0.059,0.229-0.113,0.51-0.113,0.818
		c0,0.537,0.312,1.074,1.131,1.074c1.133,0,1.33-0.904,1.559-1.867L189.645,159.219z"></path>
		<path fill="#1A1A18" d="M198.723,153.846c0.51-2.121,0.82-3.197,4.385-3.197c0.793,0,1.559,0.029,2.461,0.088l-0.594,2.545
		c-1.471-0.025-1.781,0.027-2.008,0.537c-0.113,0.229-0.283,1.021-0.367,1.355h1.838l-0.594,2.52h-1.84l-2.629,11.482h-4.189
		l2.631-11.482h-1.668l0.564-2.52h1.697L198.723,153.846z"></path>
		<path fill="#1A1A18" d="M215.215,164.678c-0.256,1.047-0.539,2.266-1.416,3.227c-0.818,0.963-2.205,1.67-4.666,1.67
		c-0.707,0-2.658-0.113-3.904-1.074c-0.594-0.479-1.158-1.188-1.158-2.688c0-1.84,1.328-6.985,1.781-8.032
		c0.48-1.132,1.559-2.886,5.375-2.886c1.668,0,4.922,0.312,4.922,3.422c0,0.566-0.111,1.189-0.227,1.781
		c-0.199,1.021-0.426,1.953-0.68,3.142h-6.678c-0.195,0.819-0.479,1.95-0.479,2.545c0,0.144,0.028,0.282,0.086,0.426
		c0.168,0.312,0.595,0.509,1.158,0.509c1.159,0,1.33-0.817,1.61-2.009h4.271v-0.028h0.004L215.215,164.678L215.215,164.678z
		 M211.848,160.635c0.113-0.453,0.367-1.529,0.367-1.896c0-0.254-0.055-0.509-0.197-0.707c-0.254-0.312-0.732-0.367-0.99-0.367
		c-1.271,0-1.471,0.937-1.865,2.972h2.688v-0.002H211.848z"></path>
		<path fill="#1A1A18" d="M221.578,164.424c-0.143,0.424-0.283,0.906-0.283,1.387c0,0.734,0.594,0.877,1.047,0.877
		c0.141,0,0.479,0,0.764-0.17c0.48-0.34,0.596-1.047,0.596-1.414c0-0.535-0.197-0.734-0.51-0.988
		c-0.396-0.342-2.604-1.926-2.658-1.979c-0.963-0.766-1.527-1.525-1.527-2.572c0-0.82,0.396-2.01,0.707-2.574
		c0.766-1.357,2.547-2.064,4.811-2.064c2.744,0,4.865,1.074,4.865,3.226c0,0.511-0.113,0.962-0.197,1.442h-3.934
		c0.084-0.256,0.229-0.82,0.229-1.133c0-0.113-0.027-0.791-1.047-0.791c-1.244,0-1.244,1.301-1.244,1.357
		c0,0.479,0.281,0.764,0.82,1.16c0.025,0.023,1.301,0.902,1.471,1.047c1.781,1.215,2.658,1.838,2.658,3.363
		c0,0.852-0.367,2.436-1.074,3.279c-0.68,0.82-2.123,1.645-4.582,1.645c-1.979,0-2.855-0.367-3.225-0.537
		c-1.33-0.596-1.926-1.443-1.926-2.803c0-0.648,0.17-1.188,0.312-1.727h3.934v-0.027h-0.004v-0.004H221.578z"></path>
		<path fill="#1A1A18" d="M234.445,164.424c-0.141,0.424-0.279,0.906-0.279,1.387c0,0.734,0.594,0.877,1.045,0.877
		c0.143,0,0.48,0,0.766-0.17c0.48-0.34,0.594-1.047,0.594-1.414c0-0.535-0.197-0.734-0.51-0.988
		c-0.396-0.342-2.602-1.926-2.658-1.979c-0.963-0.766-1.525-1.525-1.525-2.572c0-0.82,0.396-2.01,0.707-2.574
		c0.766-1.357,2.545-2.064,4.811-2.064c2.742,0,4.863,1.074,4.863,3.226c0,0.511-0.111,0.962-0.197,1.442h-3.934
		c0.086-0.256,0.229-0.82,0.229-1.133c0-0.113-0.027-0.791-1.047-0.791c-1.244,0-1.244,1.301-1.244,1.357
		c0,0.479,0.283,0.764,0.818,1.16c0.027,0.023,1.303,0.902,1.473,1.047c1.781,1.215,2.658,1.838,2.658,3.363
		c0,0.852-0.367,2.436-1.074,3.279c-0.682,0.82-2.121,1.645-4.582,1.645c-1.979,0-2.855-0.367-3.227-0.537
		c-1.33-0.596-1.924-1.443-1.924-2.803c0-0.648,0.17-1.188,0.312-1.727h3.932v-0.027h-0.004v-0.004H234.445z"></path>
		<path fill="#1A1A18" d="M246.018,155.203h4.158l-3.227,14.002h-4.131L246.018,155.203z M251.191,150.762l-0.707,3.143h-4.156
		l0.734-3.143H251.191z"></path>
		<path fill="#1A1A18" d="M263.156,158.682c0,1.471-1.131,6.107-1.525,7.299c-0.51,1.471-1.301,3.535-5.488,3.535
		c-3.139,0-5.146-1.047-5.146-3.791c0-1.527,1.188-6.137,1.414-6.873c0.45-1.498,1.327-4.018,5.346-4.018
		C259.877,154.836,263.156,155.174,263.156,158.682z M259.057,159.219c0.057-0.168,0.084-0.367,0.084-0.537
		c0.029-0.678-0.508-1.047-1.131-1.047c-1.131,0-1.357,0.963-1.498,1.584l-1.303,5.604c-0.059,0.229-0.113,0.51-0.113,0.818
		c0,0.537,0.312,1.074,1.133,1.074c1.131,0,1.328-0.904,1.557-1.867L259.057,159.219z"></path>
		<path fill="#1A1A18" d="M274.727,169.205h-4.158l2.234-9.844c0.086-0.312,0.086-0.537,0.086-0.65c0-0.99-0.85-0.99-0.963-0.99
		c-1.189,0-1.498,1.244-1.555,1.668l-2.266,9.816h-4.07l3.225-14.002h4.102l-0.34,1.387c1.557-1.641,3.252-1.697,3.705-1.697
		c0.793,0,2.604,0.254,2.604,2.545c0,0.512-0.084,0.936-0.168,1.357L274.727,169.205z"></path>
		<path fill="#1A1A18" d="M288.756,169.205h-4.158l2.234-9.844c0.086-0.312,0.086-0.537,0.086-0.65c0-0.99-0.852-0.99-0.961-0.99
		c-1.189,0-1.5,1.244-1.559,1.668l-2.264,9.816h-4.072l3.227-14.002h4.102l-0.34,1.387c1.557-1.641,3.254-1.697,3.705-1.697
		c0.793,0,2.604,0.254,2.604,2.545c0,0.512-0.086,0.936-0.17,1.357L288.756,169.205z"></path>
		<path fill="#1A1A18" d="M303.943,164.678c-0.254,1.047-0.537,2.266-1.414,3.227c-0.818,0.963-2.207,1.67-4.666,1.67
		c-0.709,0-2.658-0.113-3.902-1.074c-0.596-0.479-1.16-1.188-1.16-2.688c0-1.84,1.33-6.985,1.783-8.032
		c0.479-1.132,1.555-2.886,5.373-2.886c1.67,0,4.922,0.312,4.922,3.422c0,0.566-0.113,1.189-0.229,1.781
		c-0.195,1.021-0.424,1.953-0.678,3.142h-6.678c-0.197,0.819-0.479,1.95-0.479,2.545c0,0.144,0.025,0.282,0.084,0.426
		c0.17,0.312,0.596,0.509,1.16,0.509c1.188,0,1.33-0.817,1.609-2.009h4.271v-0.03h0.002V164.678z M300.58,160.635
		c0.111-0.453,0.365-1.529,0.365-1.896c0-0.254-0.057-0.509-0.195-0.707c-0.256-0.312-0.736-0.367-0.99-0.367
		c-1.273,0-1.471,0.937-1.867,2.972h2.688L300.58,160.635L300.58,160.635z"></path>
		<path fill="#1A1A18" d="M310.055,150.762h4.188l-4.244,18.443h-4.187L310.055,150.762z"></path>
		<path fill="#1A1A18" d="M317.521,150.762h4.188l-4.242,18.443h-4.189L317.521,150.762z"></path>
		<path fill="#1A1A18" d="M332.627,164.678c-0.254,1.047-0.537,2.266-1.414,3.227c-0.82,0.963-2.207,1.67-4.668,1.67
		c-0.707,0-2.658-0.113-3.902-1.074c-0.594-0.479-1.16-1.188-1.16-2.688c0-1.84,1.33-6.985,1.783-8.032
		c0.48-1.132,1.555-2.886,5.373-2.886c1.67,0,4.922,0.312,4.922,3.422c0,0.566-0.113,1.189-0.227,1.781
		c-0.197,1.021-0.424,1.953-0.68,3.142h-6.676c-0.199,0.819-0.479,1.95-0.479,2.545c0,0.144,0.024,0.282,0.084,0.426
		c0.17,0.312,0.595,0.509,1.16,0.509c1.188,0,1.325-0.817,1.608-2.009h4.271v-0.028h0.004L332.627,164.678L332.627,164.678z
		 M329.262,160.635c0.113-0.453,0.367-1.529,0.367-1.896c0-0.254-0.059-0.509-0.197-0.707c-0.256-0.312-0.736-0.367-0.99-0.367
		c-1.271,0-1.471,0.937-1.865,2.972h2.688v-0.002H329.262z"></path>
		<path fill="#1A1A18" d="M44.624,176.869l-0.706,3.141H39.08l-0.962,4.215h4.64l-0.735,3.168h-4.64l-1.838,7.947h-4.441
		l4.244-18.441h9.277L44.624,176.869L44.624,176.869z"></path>
		<path fill="#1A1A18" d="M55.57,184.789c0,1.471-1.131,6.109-1.527,7.299c-0.509,1.471-1.301,3.535-5.486,3.535
		c-3.141,0-5.148-1.047-5.148-3.791c0-1.527,1.188-6.137,1.415-6.873c0.452-1.498,1.329-4.016,5.347-4.016
		C52.259,180.971,55.57,181.283,55.57,184.789z M51.44,185.355c0.057-0.197,0.085-0.367,0.085-0.537
		c0.027-0.68-0.51-1.047-1.131-1.047c-1.133,0-1.358,0.961-1.5,1.584l-1.301,5.572c-0.058,0.227-0.113,0.537-0.113,0.818
		c0,0.537,0.312,1.074,1.132,1.074c1.131,0,1.329-0.904,1.556-1.896L51.44,185.355z"></path>
		<path fill="#1A1A18" d="M63.123,184.111c1.159-2.207,2.008-2.689,4.215-3.027l-1.047,3.904c-0.283-0.029-0.566-0.029-0.849-0.029
		c-2.291,0-2.716,0.99-3.31,3.535l-1.584,6.818h-4.131l3.225-14.002h4.131L63.123,184.111z"></path>
		<path fill="#1A1A18" d="M72.964,182.922c1.273-1.781,3.254-1.895,3.762-1.895c0.963,0,2.461,0.395,2.632,1.924
		c1.019-1.273,2.461-1.951,4.103-1.951c1.018,0,2.855,0.367,2.855,2.404c0,0.424-0.085,0.82-0.143,1.215l-2.488,10.721h-4.242
		l2.291-9.928c0.027-0.17,0.057-0.34,0.057-0.51c0-0.537-0.283-1.105-1.074-1.105c-1.16,0-1.414,1.135-1.527,1.584l-2.291,9.957
		h-4.242l2.318-10.068c0.058-0.168,0.086-0.338,0.086-0.51c0-0.646-0.453-1.074-1.104-1.074c-0.849,0-1.356,0.623-1.556,1.527
		l-2.319,10.1h-4.187l3.225-14.002h4.215L72.964,182.922z"></path>
		<path fill="#1A1A18" d="M97.63,193.729c-0.029,0.197-0.086,0.424-0.086,0.621c0,0.623,0.17,0.764,0.396,0.963h-4.752l0.367-1.471
		c-0.935,0.818-2.121,1.838-3.762,1.838c-0.283,0-2.771,0-2.771-2.545c0-0.852,0.537-3.312,1.414-4.303
		c0.849-0.988,2.121-1.355,6.986-2.771c0.142-0.537,0.312-1.442,0.312-1.641c0-0.736-0.681-0.791-1.132-0.791
		c-1.16,0-1.387,0.62-1.782,2.034h-3.96c0.594-2.433,0.904-3.226,2.206-3.901c0.962-0.51,2.292-0.735,3.763-0.735
		c2.404,0,4.895,0.594,4.895,3.055c0,0.511-0.113,1.048-0.228,1.56L97.63,193.729z M94.859,188.777
		c-0.934,0.283-2.15,0.648-2.631,1.047c-0.68,0.537-0.85,2.037-0.85,2.291c0,0.479,0.198,0.85,0.905,0.85
		c0.735,0,1.272-0.453,1.726-0.85L94.859,188.777z"></path>
		<path fill="#1A1A18" d="M103.033,181.311h9.674l-0.594,2.545l-6.932,8.627h5.375l-0.65,2.83h-10.38l0.594-2.66l7.043-8.711h-4.724
		L103.033,181.311z"></path>
		<path fill="#1A1A18" d="M115.366,181.311h4.157l-3.225,14.002h-4.131L115.366,181.311z M120.542,176.869l-0.707,3.141h-4.158
		l0.734-3.141H120.542z"></path>
		<path fill="#1A1A18" d="M132.535,184.789c0,1.471-1.132,6.109-1.527,7.299c-0.51,1.471-1.302,3.535-5.486,3.535
		c-3.141,0-5.148-1.047-5.148-3.791c0-1.527,1.188-6.137,1.414-6.873c0.453-1.498,1.33-4.016,5.348-4.016
		C129.253,180.971,132.535,181.283,132.535,184.789z M128.405,185.355c0.058-0.197,0.085-0.367,0.085-0.537
		c0.027-0.68-0.509-1.047-1.132-1.047c-1.132,0-1.356,0.961-1.499,1.584l-1.301,5.572c-0.057,0.227-0.113,0.537-0.113,0.818
		c0,0.537,0.312,1.074,1.132,1.074c1.132,0,1.329-0.904,1.556-1.896L128.405,185.355z"></path>
		<path fill="#1A1A18" d="M144.103,195.312h-4.157l2.233-9.844c0.086-0.312,0.086-0.537,0.086-0.65c0-0.99-0.85-0.99-0.963-0.99
		c-1.188,0-1.498,1.244-1.556,1.668l-2.263,9.816h-4.073l3.226-14.002h4.101l-0.339,1.387c1.556-1.641,3.253-1.697,3.705-1.697
		c0.791,0,2.604,0.254,2.604,2.545c0,0.512-0.086,0.936-0.17,1.357L144.103,195.312z"></path>
		<path fill="#1A1A18" d="M159.292,190.814c-0.254,1.047-0.537,2.264-1.414,3.225c-0.82,0.961-2.205,1.668-4.668,1.668
		c-0.707,0-2.658-0.113-3.902-1.074c-0.596-0.479-1.16-1.217-1.16-2.688c0-1.867,1.33-6.986,1.781-8.033
		c0.48-1.131,1.557-2.912,5.375-2.912c1.67,0,4.922,0.312,4.922,3.422c0,0.566-0.113,1.189-0.227,1.781
		c-0.197,1.021-0.424,1.953-0.68,3.141h-6.674c-0.199,0.82-0.48,1.951-0.48,2.547c0,0.145,0.027,0.281,0.084,0.428
		c0.17,0.312,0.594,0.508,1.16,0.508c1.188,0,1.33-0.818,1.613-2.008h4.27V190.814L159.292,190.814z M155.927,186.742
		c0.113-0.453,0.367-1.527,0.367-1.896c0-0.254-0.059-0.537-0.197-0.707c-0.254-0.311-0.736-0.367-0.99-0.367
		c-1.273,0-1.471,0.936-1.867,2.973L155.927,186.742L155.927,186.742z"></path>
		<path fill="#1A1A18" d="M179.715,191.408c-0.621,2.744-1.811,4.242-4.072,4.242c-1.584,0-2.715-0.791-3.025-1.896
		c-0.059-0.141-0.027-0.51-0.084-0.281l-1.586,6.932h-4.213l4.385-19.035h4.215l-0.479,1.779c0.732-0.902,1.668-2.092,3.592-2.092
		c1.584,0,2.828,0.936,2.828,2.826c0,0.537-0.084,1.074-0.195,1.668L179.715,191.408z M176.803,185.922
		c0.113-0.453,0.197-0.85,0.197-1.189c0-0.705-0.453-1.072-1.074-1.072c-1.047,0-1.33,0.793-1.443,1.271l-1.328,5.771
		c-0.086,0.34-0.17,0.793-0.17,1.047c0,0.791,0.564,1.104,1.104,1.104c0.707,0,1.188-0.451,1.44-1.5L176.803,185.922z">
		</path>
		<path fill="#1A1A18" d="M188.682,184.111c1.16-2.207,2.01-2.689,4.215-3.027l-1.047,3.904c-0.281-0.029-0.562-0.029-0.848-0.029
		c-2.291,0-2.715,0.99-3.312,3.535l-1.555,6.818h-4.129l3.223-14.002h4.131L188.682,184.111z"></path>
		<path fill="#1A1A18" d="M204.438,184.789c0,1.471-1.131,6.109-1.525,7.299c-0.512,1.471-1.303,3.535-5.488,3.535
		c-3.139,0-5.146-1.047-5.146-3.791c0-1.527,1.188-6.137,1.414-6.873c0.451-1.498,1.328-4.016,5.349-4.016
		C201.154,180.971,204.438,181.283,204.438,184.789z M200.309,185.355c0.055-0.197,0.084-0.367,0.084-0.537
		c0.027-0.68-0.51-1.047-1.131-1.047c-1.133,0-1.357,0.961-1.5,1.584l-1.301,5.572c-0.059,0.227-0.113,0.537-0.113,0.818
		c0,0.537,0.312,1.074,1.131,1.074c1.133,0,1.33-0.904,1.559-1.896L200.309,185.355z"></path>
		<path fill="#1A1A18" d="M209.387,179.953c0.51-2.121,0.82-3.197,4.385-3.197c0.793,0,1.559,0.029,2.461,0.086l-0.594,2.574
		c-1.471-0.029-1.783,0.027-2.008,0.537c-0.113,0.227-0.283,1.018-0.369,1.357h1.84l-0.594,2.518h-1.84l-2.631,11.484h-4.188
		l2.631-11.484h-1.67l0.564-2.518h1.695L209.387,179.953z"></path>
		<path fill="#1A1A18" d="M225.904,190.814c-0.254,1.047-0.535,2.264-1.412,3.225c-0.82,0.961-2.207,1.668-4.67,1.668
		c-0.705,0-2.656-0.113-3.9-1.074c-0.594-0.479-1.16-1.217-1.16-2.688c0-1.867,1.33-6.986,1.781-8.033
		c0.479-1.131,1.557-2.912,5.375-2.912c1.668,0,4.922,0.312,4.922,3.422c0,0.566-0.113,1.189-0.229,1.781
		c-0.195,1.021-0.424,1.953-0.68,3.141h-6.676c-0.197,0.82-0.48,1.951-0.48,2.547c0,0.145,0.029,0.281,0.086,0.428
		c0.172,0.312,0.596,0.508,1.16,0.508c1.158,0,1.328-0.818,1.609-2.008h4.271v-0.004H225.904L225.904,190.814z M222.539,186.742
		c0.111-0.453,0.367-1.527,0.367-1.896c0-0.254-0.057-0.537-0.197-0.707c-0.254-0.311-0.734-0.367-0.99-0.367
		c-1.271,0-1.471,0.936-1.865,2.973L222.539,186.742L222.539,186.742z"></path>
		<path fill="#1A1A18" d="M232.27,190.531c-0.141,0.424-0.281,0.906-0.281,1.387c0,0.734,0.596,0.877,1.047,0.877
		c0.145,0,0.48,0,0.764-0.17c0.48-0.34,0.598-1.047,0.598-1.414c0-0.51-0.199-0.736-0.512-0.99c-0.396-0.34-2.604-1.924-2.656-1.979
		c-0.963-0.766-1.529-1.525-1.529-2.574c0-0.818,0.396-2.008,0.709-2.572c0.766-1.355,2.547-2.062,4.811-2.062
		c2.742,0,4.863,1.074,4.863,3.225c0,0.48-0.111,0.963-0.197,1.443h-3.934c0.086-0.256,0.229-0.852,0.229-1.133
		c0-0.113-0.029-0.791-1.047-0.791c-1.244,0-1.244,1.301-1.244,1.355c0,0.512,0.283,0.766,0.82,1.158
		c0.025,0.025,1.301,0.904,1.471,1.049c1.781,1.215,2.658,1.865,2.658,3.363c0,0.852-0.367,2.436-1.074,3.279
		c-0.68,0.85-2.121,1.643-4.582,1.643c-1.979,0-2.856-0.365-3.225-0.535c-1.33-0.596-1.926-1.441-1.926-2.803
		c0-0.648,0.172-1.188,0.312-1.727h3.933v-0.027L232.27,190.531L232.27,190.531z"></path>
		<path fill="#1A1A18" d="M245.141,190.531c-0.143,0.424-0.283,0.906-0.283,1.387c0,0.734,0.596,0.877,1.047,0.877
		c0.143,0,0.48,0,0.766-0.17c0.479-0.34,0.596-1.047,0.596-1.414c0-0.51-0.197-0.736-0.512-0.99
		c-0.396-0.34-2.604-1.924-2.656-1.979c-0.963-0.766-1.527-1.525-1.527-2.574c0-0.818,0.396-2.008,0.707-2.572
		c0.766-1.355,2.545-2.062,4.811-2.062c2.744,0,4.863,1.074,4.863,3.225c0,0.48-0.111,0.963-0.197,1.443h-3.936
		c0.086-0.256,0.229-0.852,0.229-1.133c0-0.113-0.027-0.791-1.047-0.791c-1.244,0-1.244,1.301-1.244,1.355
		c0,0.512,0.283,0.766,0.818,1.158c0.029,0.025,1.303,0.904,1.473,1.049c1.783,1.215,2.66,1.865,2.66,3.363
		c0,0.852-0.369,2.436-1.076,3.279c-0.68,0.85-2.121,1.643-4.582,1.643c-1.98,0-2.857-0.365-3.227-0.535
		c-1.326-0.596-1.924-1.441-1.924-2.803c0-0.648,0.17-1.188,0.312-1.727h3.933v-0.029H245.141L245.141,190.531z"></path>
		<path fill="#1A1A18" d="M256.68,181.311h4.158l-3.227,14.002h-4.129L256.68,181.311z M261.855,176.869l-0.707,3.141h-4.156
		l0.732-3.141H261.855z"></path>
		<path fill="#1A1A18" d="M273.85,184.789c0,1.471-1.131,6.109-1.527,7.299c-0.51,1.471-1.301,3.535-5.484,3.535
		c-3.143,0-5.146-1.047-5.146-3.791c0-1.527,1.188-6.137,1.414-6.873c0.453-1.498,1.33-4.016,5.346-4.016
		C270.541,180.971,273.85,181.283,273.85,184.789z M269.721,185.355c0.057-0.197,0.084-0.367,0.084-0.537
		c0.029-0.68-0.508-1.047-1.131-1.047c-1.131,0-1.357,0.961-1.5,1.584l-1.301,5.572c-0.059,0.227-0.113,0.537-0.113,0.818
		c0,0.537,0.311,1.074,1.133,1.074c1.131,0,1.328-0.904,1.555-1.896L269.721,185.355z"></path>
		<path fill="#1A1A18" d="M285.418,195.312h-4.158l2.236-9.844c0.084-0.312,0.084-0.537,0.084-0.65c0-0.99-0.85-0.99-0.961-0.99
		c-1.189,0-1.5,1.244-1.559,1.668l-2.264,9.816h-4.072l3.225-14.002h4.104l-0.34,1.387c1.557-1.641,3.254-1.697,3.705-1.697
		c0.793,0,2.604,0.254,2.604,2.545c0,0.512-0.086,0.936-0.17,1.357L285.418,195.312z"></path>
		<path fill="#1A1A18" d="M299.307,193.729c-0.027,0.197-0.084,0.424-0.084,0.621c0,0.623,0.17,0.764,0.396,0.963h-4.753l0.368-1.471
		c-0.934,0.818-2.121,1.838-3.762,1.838c-0.283,0-2.772,0-2.772-2.545c0-0.852,0.536-3.312,1.413-4.303
		c0.852-0.988,2.123-1.355,6.988-2.771c0.143-0.537,0.312-1.442,0.312-1.641c0-0.736-0.682-0.791-1.132-0.791
		c-1.188,0-1.388,0.62-1.782,2.034h-3.959c0.594-2.433,0.902-3.226,2.205-3.901c0.963-0.51,2.291-0.735,3.762-0.735
		c2.404,0,4.896,0.594,4.896,3.055c0,0.511-0.111,1.048-0.229,1.56L299.307,193.729z M296.506,188.777
		c-0.936,0.283-2.148,0.648-2.629,1.047c-0.682,0.537-0.852,2.037-0.852,2.291c0,0.479,0.197,0.85,0.906,0.85
		c0.732,0,1.271-0.453,1.725-0.85L296.506,188.777z"></path>
		<path fill="#1A1A18" d="M306.404,176.869h4.188l-4.242,18.443h-4.186L306.404,176.869z"></path>
		<path fill="#1A1A18" d="M321.512,190.814c-0.256,1.047-0.539,2.264-1.414,3.225c-0.82,0.961-2.207,1.668-4.668,1.668
		c-0.707,0-2.658-0.113-3.904-1.074c-0.594-0.479-1.156-1.217-1.156-2.688c0-1.867,1.326-6.986,1.779-8.033
		c0.48-1.131,1.559-2.912,5.375-2.912c1.668,0,4.922,0.312,4.922,3.422c0,0.566-0.111,1.189-0.227,1.781
		c-0.199,1.021-0.426,1.953-0.68,3.141h-6.678c-0.195,0.82-0.479,1.951-0.479,2.547c0,0.145,0.029,0.281,0.087,0.428
		c0.168,0.312,0.594,0.508,1.157,0.508c1.188,0,1.33-0.818,1.61-2.008h4.272v-0.004H321.512L321.512,190.814z M318.145,186.742
		c0.113-0.453,0.369-1.527,0.369-1.896c0-0.254-0.057-0.537-0.199-0.707c-0.254-0.311-0.732-0.367-0.988-0.367
		c-1.271,0-1.473,0.936-1.867,2.973L318.145,186.742L318.145,186.742z"></path>
	</g>
</svg>